# xmcd CD database file
#
# Track frame offsets:
#	150
#	32159
#	63132
#	97072
#	118894
#	143130
#	170388
#	193141
#	223072
#	251788
#
# Disc length: 3597 seconds
#
# Revision: 1
# Processed by: cddbd v1.5.2PL0 Copyright (c) Steve Scherf et al.
# Submitted via: CDex 1.70beta2
#
DISCID=990e0b0a
DTITLE=Julie LaMontagne Trio - Facing The Truth
DYEAR=2005
DGENRE=Jazz
TTITLE0=Vagabonde
TTITLE1=Facing the Truth
TTITLE2=Douce Latitude
TTITLE3=Hank Dog
TTITLE4=CCM
TTITLE5=For Months
TTITLE6=Day in Paname
TTITLE7=L'alizee
TTITLE8=White Chocolate
TTITLE9=Taksim
EXTD=YEAR: 2005
EXTT0=
EXTT1=
EXTT2=
EXTT3=
EXTT4=
EXTT5=
EXTT6=
EXTT7=
EXTT8=
EXTT9=
PLAYORDER=
